<?xml version="1.0" encoding="UTF-8" standalone="no"?>
<svg
   xmlns:dc="http://purl.org/dc/elements/1.1/"
   xmlns:cc="http://creativecommons.org/ns#"
   xmlns:rdf="http://www.w3.org/1999/02/22-rdf-syntax-ns#"
   xmlns:svg="http://www.w3.org/2000/svg"
   xmlns="http://www.w3.org/2000/svg"
   viewBox="0 0 1489.4545 1489.4545"
   height="1489.4545"
   width="1489.4545"
   id="svg3753"
   version="1.1">
  <metadata
     id="metadata3759">
    <rdf:RDF>
      <cc:Work
         rdf:about="">
        <dc:format>image/svg+xml</dc:format>
        <dc:type
           rdf:resource="http://purl.org/dc/dcmitype/StillImage" />
        <dc:title></dc:title>
      </cc:Work>
    </rdf:RDF>
  </metadata>
  <defs
     id="defs3757" />
  <g
     style="display:inline"
     id="g3763">
    <path
       id="path3779"
       d="M 2.3200226,744.72725 V 0 H 745.88722 1489.4544 V 744.72725 1489.4545 H 745.88722 2.3200226 Z"
       style="fill:#fefefe;stroke-width:0.72670603" />
    <path
       id="path3777"
       d="m 172.59982,1424.028 c -2.79564,-0.316 -9.28897,-0.6153 -14.42961,-0.665 -10.01461,-0.097 -21.37562,-1.4814 -30.32,-3.6951 -9.91414,-2.4538 -18.08439,-7.4761 -27.11399,-16.6671 -6.675392,-6.7947 -7.556141,-8.246 -10.523722,-17.3409 -3.322591,-10.183 -4.925843,-21.1998 -6.168522,-42.3872 -1.005254,-17.1394 -1.129939,-80.3978 -1.126403,-571.4832 0.0029,-380.36307 0.241035,-554.40823 0.765751,-559.27271 1.714431,-15.89409 4.218168,-25.65261 8.342824,-32.5168 7.718714,-12.84537 17.768602,-21.20474 30.470022,-25.34455 10.01202,-3.26326 32.72687,-6.26816 51.919,-6.86825 9.38535,-0.29346 265.24073,-0.52927 568.56749,-0.52402 525.98044,0.009 551.87294,0.0697 559.49074,1.30843 15.6342,2.54235 22.2653,4.82809 30.8117,10.62098 7.2823,4.93605 15.7117,14.80825 18.9987,22.25057 2.0693,4.68542 6.1997,21.54457 7.3079,29.82957 0.8061,6.02568 0.9729,104.91638 0.9729,576.72726 0,552.32702 -0.041,569.71702 -1.3557,578.18182 -2.4254,15.6136 -4.6623,22.1512 -10.5733,30.9016 -3.0467,4.5102 -11.2759,12.6933 -15.7699,15.6816 -8.0287,5.3387 -24.4024,9.14 -45.2782,10.512 -14.9064,0.9795 -1106.46173,1.7147 -1114.98768,0.751 z"
       style="fill:#97abcd;stroke-width:0.72670603" />
    <path
       id="path3775"
       d="m 176.47276,1423.6365 c -0.21966,-0.22 -7.87957,-0.6963 -17.02203,-1.0585 -31.74423,-1.2576 -42.36538,-4.7242 -56.73191,-18.5162 -7.545989,-7.2442 -9.829313,-11.0827 -12.803473,-21.5242 -2.733895,-9.598 -3.983487,-19.1254 -5.172222,-39.4352 -0.959114,-16.3867 -1.09544,-87.4027 -1.09544,-570.65021 0,-370.94315 0.243664,-554.40422 0.743059,-559.46605 1.002327,-10.15954 3.322003,-21.75041 5.356494,-26.76513 4.21148,-10.3807 14.782852,-22.21152 24.306342,-27.20216 7.75267,-4.06267 17.32671,-6.28651 41.48195,-9.63535 7.55749,-1.04776 60.86872,-1.19233 561.3061,-1.52219 377.17837,-0.24861 557.91837,-0.12422 568.56747,0.3913 29.3914,1.42285 41.329,5.08689 53.5629,16.44026 5.1924,4.8187 10.3183,11.61669 12.5225,16.60742 1.8168,4.1136 6.1659,20.98925 7.3722,28.60619 1.158,7.31215 1.8091,1115.93092 0.6695,1139.91162 -1.4326,30.1461 -5.2261,41.4937 -18.2641,54.6349 -7.1863,7.2432 -10.0438,9.2115 -17.0427,11.7401 -11.8361,4.2762 -19.2592,5.293 -51.1705,7.009 -14.1288,0.7597 -1095.83346,1.1883 -1096.58614,0.4344 z m 226.89405,-291.017 c 1.27815,-0.6593 7.87887,-5.6588 14.66827,-11.11 13.15668,-10.5635 29.28273,-23.275 35.59101,-28.055 2.11156,-1.6 8.23267,-6.3791 13.60244,-10.6203 5.36978,-4.2411 10.54879,-7.9139 11.50891,-8.1615 0.96012,-0.2477 5.517,-3.4868 10.12641,-7.1979 4.60939,-3.7112 17.17553,-13.6203 27.92475,-22.0203 10.74921,-8.4 27.12201,-21.3273 36.384,-28.7273 9.26198,-7.4 19.99912,-15.8838 23.86031,-18.8529 3.86117,-2.96909 8.7961,-7.14873 10.9665,-9.28808 5.95738,-5.87214 5.60056,-7.77927 -3.55686,-19.01054 -2.50041,-3.06662 -8.59586,-10.81207 -13.54545,-17.21207 -4.9496,-6.4 -13.45851,-17.2 -18.90871,-24 -8.97795,-11.20146 -26.28851,-33.25964 -34.78338,-44.3232 -1.82571,-2.37775 -7.90581,-10.06865 -13.51135,-17.09091 -10.98632,-13.76291 -16.16693,-20.36189 -38.00027,-48.40407 -21.73581,-27.91687 -23.92329,-30.16618 -28.31227,-29.11215 -2.65815,0.6384 -5.66821,2.83579 -28.05971,20.484 -54.4473,42.91346 -65.07062,51.30538 -88.34091,69.78487 -13.8417,10.99208 -25.98076,21.05448 -26.97567,22.36088 -0.99491,1.30647 -7.27338,6.61309 -13.95215,11.79251 -26.83906,20.81389 -31.57125,25.04298 -31.57125,28.21454 0,1.09331 0.62714,3.20204 1.39364,4.68611 0.7665,1.48407 10.16094,13.69476 20.87652,27.13483 10.71558,13.44015 26.73185,33.73108 35.5917,45.09088 8.85985,11.36 18.66274,23.7977 21.78419,27.6394 3.12146,3.8419 11.06697,13.9289 17.65669,22.4158 31.33128,40.3512 44.57395,57.0148 48.72917,61.3171 3.64083,3.7698 5.17542,4.1624 8.85347,2.2653 z"
       style="fill:#6a85b7;stroke-width:0.72670603" />
    <path
       id="path3773"
       d="m 172.96289,1423.3088 c -2.99533,-0.3153 -9.61443,-0.616 -14.70911,-0.6683 -13.67362,-0.1403 -30.32966,-2.8933 -38.00431,-6.2816 -10.07062,-4.4461 -23.308517,-16.3091 -26.776205,-23.9953 -2.501211,-5.5439 -5.322765,-15.9138 -6.53019,-24 -3.373065,-22.5895 -3.298563,-9.1529 -3.296929,-594.62166 7.26e-4,-373.70104 0.242981,-552.50872 0.756136,-558.83802 0.920826,-11.35751 3.020357,-22.59557 5.318815,-28.46967 4.289199,-10.96178 15.007013,-22.68908 25.513673,-27.91671 7.58291,-3.77292 18.21926,-6.1813 38.12234,-8.632 10.96491,-1.35013 25.82438,-1.39232 576.19197,-1.63571 538.53232,-0.23815 565.29032,-0.18946 572.50152,1.04193 16.9382,2.8924 21.5568,4.45586 30.3996,10.2906 9.089,5.99722 17.0681,15.94601 20.1819,25.16405 2.4316,7.19853 5.2156,19.14187 6.268,26.88995 1.4212,10.46439 1.3836,1142.10764 -0.039,1151.63634 -1.5656,10.4918 -3.753,19.9808 -5.5372,24.0215 -4.2922,9.7206 -14.0339,20.9007 -22.5316,25.8585 -6.7225,3.922 -25.607,8.6451 -34.7266,8.6851 -2.4667,0.011 -7.5892,0.3339 -11.3833,0.7179 -8.4418,0.8542 -1103.70945,1.5962 -1111.72009,0.7531 z m 230.40392,-290.6893 c 1.27815,-0.6593 7.87887,-5.6588 14.66827,-11.11 13.15668,-10.5635 29.28273,-23.275 35.59101,-28.055 2.11156,-1.6 8.29753,-6.4298 13.7466,-10.733 8.15412,-6.4394 10.21765,-7.7459 11.66058,-7.3832 1.80844,0.4546 2.14164,0.2004 68.61778,-52.3473 8.5866,-6.7875 20.84021,-16.452 27.23024,-21.4768 6.39003,-5.02463 13.17036,-10.67808 15.0674,-12.5631 3.08273,-3.0632 3.44917,-3.77026 3.44917,-6.65528 0,-3.83367 -0.0564,-3.91861 -16.33815,-24.57847 -6.39003,-8.10836 -22.23803,-28.212 -35.21778,-44.67476 -12.97975,-16.46276 -28.1894,-35.78669 -33.79921,-42.94196 -60.8318,-77.5912 -62.09306,-79.15811 -65.28665,-81.10865 -2.80842,-1.71528 -5.96737,-1.7192 -8.74591,-0.0109 -2.15174,1.32298 -21.64285,16.57781 -72.61398,56.83156 -67.32283,53.16734 -68.26599,53.93971 -68.11671,55.7816 0.14301,1.76472 -2.66632,4.23614 -19.682,17.31469 -10.76556,8.27454 -17.50294,13.80356 -21.30381,17.48291 -4.29172,4.15447 -4.70692,5.93367 -2.41859,10.36421 0.7665,1.48408 10.16094,13.69477 20.87652,27.13484 10.71558,13.44014 26.73185,33.73101 35.5917,45.09091 8.85985,11.3599 18.66274,23.7977 21.78419,27.6394 3.12146,3.8418 11.06697,13.9289 17.65669,22.4157 31.33128,40.3512 44.57395,57.0148 48.72917,61.3172 3.64083,3.7698 5.17542,4.1624 8.85347,2.2652 z M 605.75814,968.51837 c 4.58408,-4.91491 42.33211,-45.08763 83.8845,-89.27272 80.50324,-85.60386 87.80356,-93.37004 91.71964,-97.57244 l 2.50707,-2.6904 0.58519,-10.40051 c 1.98999,-35.36727 1.90423,-34.84283 8.91134,-54.53175 4.42909,-12.4453 11.59703,-26.50711 17.91307,-35.14148 4.40033,-6.01543 18.22676,-21.45246 24.55275,-27.41274 3.35963,-3.16547 11.40577,-9.2418 18.56173,-14.01756 10.71397,-7.15036 13.88111,-8.87705 20.86432,-11.37509 20.55404,-7.3526 36.18936,-14.32961 36.18936,-16.14892 0,-1.11572 -20.7265,-28.93653 -28.8242,-38.69023 -4.12512,-4.96871 -6.12978,-6.83657 -7.36639,-6.86367 -0.9344,-0.0205 -6.65275,2.54739 -12.70745,5.70638 -6.0547,3.159 -32.90162,16.94559 -59.65987,30.63688 -53.95132,27.60506 -73.21378,37.47198 -93.67204,47.98211 -7.58816,3.8983 -20.82206,10.68904 -29.40866,15.09054 -8.58661,4.40149 -21.98389,11.27486 -29.77174,15.27417 -7.78785,3.9993 -42.75148,21.91534 -77.69696,39.8134 -34.94548,17.89804 -69.09221,35.40233 -75.88161,38.89833 -6.78941,3.496 -21.40702,11.00734 -32.48358,16.69178 -11.07656,5.68451 -20.28706,10.57505 -20.46779,10.86793 -0.18072,0.29287 1.24426,1.88945 3.16662,3.54792 1.92235,1.6584 11.61785,13.42298 21.54555,26.14342 9.92769,12.72044 22.64668,28.85535 28.26442,35.85534 5.61774,7 17.85509,22.54546 27.19412,34.54546 9.33902,12 23.88481,30.49091 32.32397,41.09091 15.92,19.99629 25.0391,31.74116 33.97937,43.76327 2.87778,3.86982 5.72963,7.06072 6.33745,7.09091 0.60781,0.0298 4.85572,-3.96633 9.43982,-8.88124 z"
       style="fill:#698668;stroke-width:0.72670603" />
    <path
       id="path3771"
       d="m 160.25544,1422.4959 c -22.92676,-0.9606 -35.85167,-3.6666 -45.58522,-9.5441 -6.52582,-3.9406 -17.019117,-13.7191 -19.751734,-18.4064 -2.307977,-3.9589 -5.853587,-15.4194 -7.231859,-23.3756 -3.420946,-19.7477 -3.302985,-1.3796 -3.756858,-584.98801 -0.291952,-375.40257 -0.187882,-551.95488 0.331381,-562.1818 1.577524,-31.06921 5.27476,-42.29045 18.23338,-55.3389 10.9549,-11.03084 17.36324,-13.53502 45.41653,-17.74739 17.7639,-2.66735 13.44391,-2.64989 588.17327,-2.37738 524.31137,0.24861 562.49117,0.34917 568.86997,1.49845 16.7262,3.01353 25.652,7.12037 34.82,16.02094 8.1239,7.88676 12.5408,15.97448 14.9728,27.41578 0.5546,2.60932 1.3492,5.64204 1.7657,6.73938 0.9644,2.54037 2.2091,12.79268 2.5792,21.24367 0.1576,3.6 0.3066,259.36363 0.331,568.36362 0.031,390.37434 -0.1903,564.25944 -0.7249,569.81814 -0.9129,9.4943 -3.1116,20.9327 -4.9599,25.8047 -3.6498,9.6205 -15.8115,23.867 -23.79,27.8682 -9.9254,4.9775 -22.2123,7.4372 -44.1878,8.8457 -15.4584,0.9908 -79.6252,1.1048 -564.93682,1.0032 -301.12369,-0.063 -553.37936,-0.361 -560.56814,-0.6622 z M 404.09295,1135.53 c 1.27815,-0.6585 10.65635,-7.8117 20.84046,-15.8961 10.18411,-8.0845 26.52226,-20.9656 36.30699,-28.6246 19.78292,-15.4852 23.63267,-18.5138 67.16794,-52.8406 16.77383,-13.2259 36.70637,-28.9403 44.29453,-34.9209 7.58816,-5.98063 15.34878,-12.41518 17.24582,-14.29896 3.08306,-3.06152 3.44917,-3.76771 3.44917,-6.65302 0,-3.83367 -0.0564,-3.91861 -16.33815,-24.57847 -6.39003,-8.10836 -22.23803,-28.212 -35.21778,-44.67476 -12.97975,-16.46276 -28.1894,-35.78669 -33.79921,-42.94196 -60.8318,-77.5912 -62.09306,-79.15811 -65.28665,-81.10865 -2.80842,-1.71528 -5.96737,-1.7192 -8.74591,-0.0109 -3.1024,1.90756 -85.84395,67.05439 -143.77569,113.20232 -9.58505,7.63542 -22.00204,17.46196 -27.59331,21.8368 -5.59128,4.37484 -11.71809,9.49898 -13.61513,11.38684 -3.08082,3.06603 -3.44916,3.77694 -3.44916,6.65709 0,4.11832 1.61835,6.53905 19.28387,28.8448 7.44455,9.4 20.59821,26.0909 29.23038,37.09087 8.63215,11 22.41953,28.5091 30.6386,38.9091 8.21908,10.4 20.95879,26.6 28.31046,36 27.49186,35.1516 40.59591,51.3092 42.59937,52.5261 2.6158,1.5887 5.49101,1.621 8.4534,0.095 z M 605.75814,968.51837 c 6.52621,-6.99716 133.61873,-142.15825 166.99626,-177.5981 3.79408,-4.02851 9.32755,-10.09724 12.29659,-13.48611 2.96912,-3.3888 10.34757,-11.39782 16.39668,-17.79782 6.04911,-6.4 16.69039,-17.69731 23.64732,-25.10516 6.95686,-7.40786 25.71944,-27.36162 41.69452,-44.3417 15.97507,-16.98008 35.33578,-37.56412 43.02378,-45.74229 7.68801,-8.17818 13.97819,-15.2526 13.97819,-15.72094 0,-0.46834 -2.27681,-4.17027 -5.05959,-8.2265 -2.78279,-4.05624 -5.73774,-8.70639 -6.56663,-10.33366 -1.7224,-3.38144 -22.9824,-31.79602 -29.91653,-39.98429 -3.29529,-3.89129 -5.17745,-5.51987 -6.56728,-5.68247 -1.32542,-0.15507 -5.49528,1.62284 -13.04452,5.5618 -6.10299,3.18436 -32.98948,16.9917 -59.74773,30.68299 -53.95132,27.60506 -73.21378,37.47198 -93.67204,47.98211 -7.58816,3.8983 -20.82206,10.68904 -29.40866,15.09054 -8.58661,4.40149 -21.98389,11.27486 -29.77174,15.27417 -7.78785,3.9993 -42.75148,21.91534 -77.69696,39.8134 -34.94548,17.89804 -69.09221,35.40233 -75.88161,38.89833 -6.78941,3.496 -21.40702,11.00734 -32.48358,16.69178 -11.07656,5.68451 -20.28706,10.57505 -20.46779,10.86793 -0.18072,0.29287 1.24426,1.88945 3.16662,3.54792 1.92235,1.6584 11.61785,13.42298 21.54555,26.14342 9.92769,12.72044 22.64668,28.85535 28.26442,35.85534 5.61774,7 17.85509,22.54546 27.19412,34.54546 9.33902,12 23.88481,30.49091 32.32397,41.09091 15.92,19.99629 25.0391,31.74116 33.97937,43.76327 2.87778,3.86982 5.72963,7.06072 6.33745,7.09091 0.60781,0.0298 4.85572,-3.96633 9.43982,-8.88124 z"
       style="fill:#32599c;stroke-width:0.72670603" />
    <path
       id="path3769"
       d="m 160.25544,1422.4959 c -22.92676,-0.9606 -35.85167,-3.6666 -45.58522,-9.5441 -6.52582,-3.9406 -17.019117,-13.7191 -19.751734,-18.4064 -2.307977,-3.9589 -5.853587,-15.4194 -7.231859,-23.3756 -3.420946,-19.7477 -3.302985,-1.3796 -3.756858,-584.98801 -0.291952,-375.40257 -0.187882,-551.95488 0.331381,-562.1818 1.577524,-31.06921 5.27476,-42.29045 18.23338,-55.3389 10.9549,-11.03084 17.36324,-13.53502 45.41653,-17.74739 17.7639,-2.66735 13.44391,-2.64989 588.17327,-2.37738 524.31137,0.24861 562.49117,0.34917 568.86997,1.49845 16.7262,3.01353 25.652,7.12037 34.82,16.02094 8.1239,7.88676 12.5408,15.97448 14.9728,27.41578 0.5546,2.60932 1.3492,5.64204 1.7657,6.73938 0.9644,2.54037 2.2091,12.79268 2.5792,21.24367 0.1576,3.6 0.3066,259.36363 0.331,568.36362 0.031,390.37434 -0.1903,564.25944 -0.7249,569.81814 -0.9129,9.4943 -3.1116,20.9327 -4.9599,25.8047 -3.6498,9.6205 -15.8115,23.867 -23.79,27.8682 -9.9254,4.9775 -22.2123,7.4372 -44.1878,8.8457 -15.4584,0.9908 -79.6252,1.1048 -564.93682,1.0032 -301.12369,-0.063 -553.37936,-0.361 -560.56814,-0.6622 z m 36.07806,-19.1696 c -0.29177,-3.6392 1.80199,-24.6421 3.1229,-31.3263 2.81097,-14.2246 5.99441,-34.9229 6.54356,-42.5455 0.24494,-3.4 0.9006,-8.4727 1.45702,-11.2727 1.44682,-7.2807 3.75987,-22.4543 5.09976,-33.4546 l 1.15162,-9.4545 -3.34648,-30.9091 c -2.35191,-21.7228 -3.95993,-33.5028 -5.41052,-39.6364 -1.13521,-4.8 -2.30167,-10.2 -2.59213,-12 -0.78388,-4.8576 -2.82296,-9.5688 -7.83496,-18.1019 -3.70301,-6.3045 -6.10922,-9.267 -13.62691,-16.7773 -5.0214,-5.0164 -10.54885,-11.0224 -12.28324,-13.3466 -2.08671,-2.7963 -6.61293,-6.8898 -13.38052,-12.1014 -12.82701,-9.8777 -12.43143,-9.4654 -30.90893,-32.2141 -9.82836,-12.1002 -10.75746,-14.3902 -12.67556,-31.2421 -1.42689,-12.5363 -1.42796,-18.4041 -0.005,-27.261 2.30619,-14.354 7.41996,-24.1964 20.65491,-39.754 4.51117,-5.30294 11.50895,-18.12308 14.17078,-25.96134 l 1.77701,-5.23287 -1.81868,-16.09455 c -2.36239,-20.90632 -2.47935,-30.7008 -0.43044,-36.05025 l 1.51506,-3.95571 -3.06849,-3.92596 c -17.78713,-22.7576 -29.59581,-46.32756 -31.89879,-63.66967 -0.8228,-6.19578 -1.08815,-6.89418 -3.69731,-9.73084 -1.546,-1.6808 -3.9007,-5.09891 -5.23267,-7.59578 l -2.42178,-4.53971 -0.45584,2.5048 c -0.25071,1.37767 -0.33249,117.86851 -0.18173,258.86848 0.28205,263.7854 0.32304,267.4773 3.1294,281.8182 2.73124,13.957 4.35071,17.5159 11.04034,24.2617 11.09069,11.1837 23.75066,13.8183 65.49837,13.6301 l 16.33814,-0.074 -0.22893,-2.8555 z m 616.12768,2.6011 c 4.08344,-1.2189 35.25924,-31.3058 53.37672,-51.5125 24.54745,-27.3781 46.76007,-57.2498 66.69152,-89.6877 9.25966,-15.0697 29.07536,-52.2349 29.00471,-54.3993 -0.009,-0.2804 -3.26378,-2.0812 -7.2325,-4.0019 -3.96872,-1.9207 -9.1787,-4.9393 -11.57765,-6.7081 -7.5366,-5.5568 -16.00412,-17.6758 -22.59928,-32.3452 -1.34881,-3 -4.16928,-8.5636 -6.26783,-12.3636 -3.89472,-7.0527 -9.99001,-21.2312 -12.20241,-28.3846 -1.87148,-6.0509 -2.31334,-25.6682 -0.81793,-36.3135 0.64394,-4.5839 1.17076,-9.7288 1.17076,-11.433 0,-4.1036 3.94178,-28.0565 5.90272,-35.8689 0.85343,-3.4 2.79629,-10.4364 4.31748,-15.6364 1.66896,-5.7049 3.52693,-14.6463 4.68484,-22.5455 1.6874,-11.51101 1.88302,-14.7585 1.62067,-26.90905 -0.26497,-12.27134 -0.49538,-14.38822 -2.05832,-18.91047 -2.11982,-6.13345 -8.22259,-15.95498 -15.13791,-24.36225 -2.79658,-3.4 -7.06774,-8.71244 -9.49137,-11.80539 -4.59727,-5.86676 -12.09401,-12.42647 -17.07329,-14.93912 -1.6002,-0.80749 -6.84009,-2.46677 -11.64424,-3.68713 -12.03489,-3.05738 -20.9455,-6.12502 -31.19373,-10.7392 -13.8403,-6.23142 -19.13407,-11.22502 -26.12905,-24.64734 -1.87613,-3.6 -4.65289,-8.2024 -6.17059,-10.22764 -5.66251,-7.55585 -10.36594,-19.32218 -12.62787,-31.59054 -1.89043,-10.2528 -3.36086,-26.66095 -3.3605,-37.49804 l 3.6e-4,-10.22524 3.3242,-3.9005 c 1.82835,-2.14524 8.3082,-9.16204 14.39979,-15.59288 6.09151,-6.43083 16.76758,-17.75338 23.72451,-25.16123 6.95686,-7.40786 25.71944,-27.36162 41.69452,-44.3417 15.97507,-16.98008 35.33578,-37.56412 43.02378,-45.74229 7.68801,-8.17818 13.97819,-15.2526 13.97819,-15.72094 0,-0.46834 -2.27681,-4.17027 -5.05959,-8.2265 -2.78279,-4.05624 -5.72467,-8.68064 -6.53751,-10.27646 -1.67673,-3.29185 -20.66224,-28.82172 -27.6912,-37.23647 -10.47014,-12.53447 -28.23573,-31.6855 -42.49908,-45.81345 -18.26263,-18.08929 -24.9758,-24.18155 -42.03057,-38.14309 -49.55592,-40.56809 -102.24894,-71.61331 -160.10272,-94.32799 -4.59284,-1.80325 -10.5795,-4.15048 -13.30369,-5.21609 -2.7242,-1.0656 -5.6317,-1.83593 -6.4611,-1.71183 -1.6955,0.25367 -1.48446,-0.0772 -5.94303,9.31653 -4.32216,9.10632 -11.1447,21.25272 -15.2073,27.07411 -1.79609,2.57365 -5.0751,7.69988 -7.28669,11.39161 -7.93346,13.24303 -16.32709,22.93481 -35.70908,41.23177 -13.94436,13.16376 -15.47089,14.47783 -22.61028,19.46351 -10.17606,7.10629 -12.84837,8.04449 -23.81024,8.35938 -13.83565,0.39743 -19.72441,-1.33722 -29.8092,-8.78086 -7.18233,-5.30133 -15.67262,-16.42763 -18.08089,-23.69454 -1.38224,-4.1709 -3.29045,-19.02773 -3.33353,-25.95408 -0.0757,-12.17226 -7.06904,-30.41187 -18.26443,-47.63636 -6.3386,-9.75214 -11.64904,-14.95998 -18.58603,-18.22691 -2.68538,-1.26467 -8.80472,-4.22643 -13.59851,-6.5817 -9.16789,-4.50432 -12.95858,-5.26001 -17.5593,-3.50054 -1.12429,0.42997 -4.49537,0.78307 -7.49128,0.78469 -8.23691,0.004 -12.92993,-2.02309 -19.205,-8.2971 l -5.04635,-5.04549 -6.93496,1.57597 c -9.24218,2.10028 -12.58116,3.77268 -23.05853,11.54935 -10.32984,7.66717 -13.18326,10.94532 -25.69461,29.51928 -10.27578,15.2551 -14.7847,24.3844 -21.14961,42.82207 l -4.56322,13.21856 v 11.63637 11.63636 l 3.99377,-0.0362 c 2.19658,-0.0199 6.44449,-0.83807 9.43982,-1.81818 5.02376,-1.64384 6.51585,-1.77942 19.24271,-1.74866 11.99267,0.029 14.6037,0.24972 19.96884,1.68801 6.89649,1.84884 17.1055,6.44587 23.63805,10.64403 2.37508,1.52636 7.00798,4.3289 10.29532,6.22789 8.27994,4.78301 13.63223,9.5672 17.74589,15.86236 5.06423,7.74981 5.68387,10.4834 5.69649,25.1309 0.008,9.5622 0.25457,12.83108 1.07242,14.23164 4.75119,8.13644 5.45383,10.4665 6.59277,21.86247 0.61569,6.16057 1.51318,12.02538 1.9944,13.03291 l 0.87495,1.83189 14.15162,0.52945 c 20.13734,0.75339 25.39932,1.49838 31.55143,4.46706 9.00364,4.34467 16.76525,12.3062 20.12835,20.64679 1.57731,3.91179 1.68024,5.11441 1.63336,19.08397 -0.10124,30.16838 -2.80985,56.38446 -6.9086,66.86681 -2.63254,6.73255 -6.08436,11.59002 -13.90748,19.57079 -6.97824,7.11888 -11.6514,10.34669 -18.50295,12.78036 -6.35471,2.25716 -24.96844,7.90291 -32.8199,9.95469 -4.77217,1.24713 -7.54583,2.55855 -12.6659,5.98866 -9.32345,6.24603 -11.42626,8.63956 -16.44011,18.71287 -2.41345,4.84887 -5.31464,10.1744 -6.44706,11.83462 -1.13243,1.66014 -4.40681,7.66385 -7.2764,13.34159 -4.24219,8.39353 -5.92443,10.9632 -8.99981,13.74757 -5.96292,5.39854 -10.46276,7.1648 -18.30517,7.18509 -5.66033,0.0145 -7.12927,-0.25804 -10.97225,-2.0368 -7.62971,-3.53156 -14.45562,-12.06407 -17.77479,-22.21876 -1.84683,-5.65019 -8.07666,-18.49135 -11.7966,-24.31564 -2.91236,-4.55985 -5.79717,-6.39331 -12.1015,-7.6912 -4.52986,-0.93258 -17.58132,-4.69418 -29.40866,-8.47593 -7.63361,-2.4408 -8.45361,-2.55316 -18.506,-2.53571 -16.84843,0.0291 -30.05944,2.48873 -36.3783,6.77251 -5.79132,3.92619 -13.72413,17.54837 -26.34867,45.24575 -5.64468,12.38407 -5.60491,11.9968 -1.68117,16.36778 5.72289,6.37513 7.75867,12.4616 7.75867,23.19629 0,8.53913 4.0582,18.06596 13.66191,32.07229 8.78904,12.81818 11.78518,15.50145 23.12269,20.70822 11.63525,5.34349 15.35747,6.13985 28.93105,6.18996 5.99066,0.0218 13.01606,0.35324 15.61201,0.73593 2.59595,0.38269 10.60164,1.04043 17.79043,1.46167 12.47881,0.7312 25.49754,2.48247 26.70817,3.59287 0.31193,0.28604 -4.58952,4.56938 -10.89209,9.5184 -34.65292,27.21091 -35.05879,27.58771 -35.05879,32.5496 0,3.73804 1.98477,6.67302 19.28387,28.51607 7.44455,9.4 20.59821,26.09091 29.23038,37.09087 8.63215,11 22.41953,28.5091 30.6386,38.9092 8.21908,10.4 20.95879,26.5999 28.31046,36 28.24703,36.1171 40.60176,51.3189 42.70484,52.5454 2.73391,1.5944 5.36045,1.6164 8.34793,0.069 1.27815,-0.6619 12.12678,-8.9737 24.10809,-18.471 38.35502,-30.4027 51.53831,-40.6585 52.28401,-40.6741 1.04084,-0.022 9.58309,17.1692 10.47255,21.0757 1.38265,6.0725 0.94145,16.6332 -1.01811,24.3701 -2.34838,9.2721 -5.41445,15.6411 -14.17629,29.4481 -1.90379,3 -4.79728,7.7866 -6.42997,10.6369 -1.63271,2.8503 -5.69511,8.9049 -9.02757,13.4545 -3.33246,4.5497 -7.60833,10.4843 -9.50193,13.188 -1.89361,2.7037 -5.34212,7.1219 -7.66336,9.8181 -3.96078,4.6008 -6.98823,8.9279 -17.97481,25.6913 -10.99964,16.7834 -16.75501,25.914 -19.15625,30.3903 -1.42227,2.6515 -4.26684,7.9299 -6.32127,11.7299 -2.05441,3.8 -6.48823,13.6182 -9.85292,21.8182 -3.36469,8.2 -7.45052,18.0182 -9.07962,21.8182 -4.21185,9.8244 -9.79296,25.2957 -12.7586,35.3679 -2.8479,9.6721 -8.72261,25.6837 -13.84072,37.723 -4.71444,11.09 -9.09815,22.1529 -9.09815,22.9607 0,0.7667 464.83581,0.8244 467.40315,0.058 z M 358.85469,1229.0051 c 0,-0.4 -0.32677,-0.5251 -0.72614,-0.2779 -0.39938,0.2472 -0.72614,0.7768 -0.72614,1.1768 0,0.4 0.32676,0.525 0.72614,0.2778 0.39937,-0.2472 0.72614,-0.7767 0.72614,-1.1767 z m 480.3415,-449.36876 c 0.24682,-0.4 -0.0603,-0.72727 -0.6833,-0.72727 -0.62259,0 -1.13205,0.32727 -1.13205,0.72727 0,0.4 0.30745,0.72727 0.6833,0.72727 0.37578,0 0.88524,-0.32727 1.13205,-0.72727 z"
       style="fill:#5a5a5a;stroke-width:0.72670603" />
    <path
       id="path3767"
       d="m 703.77111,1422.5282 c -525.19672,-0.3608 -554.80949,-0.4484 -562.03224,-1.6632 -21.83033,-3.6714 -30.38086,-7.9392 -41.89306,-20.9098 -4.824938,-5.4363 -5.42022,-6.4776 -7.81068,-13.6627 -3.843734,-11.5533 -4.617007,-16.5587 -6.196623,-40.1107 -1.414491,-21.0901 -1.438715,-30.7833 -1.426182,-570.54546 0.0074,-318.59468 0.287675,-553.07967 0.667671,-558.59301 1.235084,-17.91968 3.789368,-28.64087 8.826048,-37.04591 4.242116,-7.07911 7.211706,-10.55326 13.078806,-15.30105 8.17653,-6.61666 13.77699,-8.71383 31.84946,-11.92651 22.47452,-3.99522 -21.37219,-3.73812 594.70854,-3.4871 l 567.47825,0.23122 7.4581,1.55238 c 10.8613,2.26077 16.1598,4.22906 22.4426,8.33689 10.4534,6.83472 18.0911,16.48308 21.486,27.1422 2.4524,7.69986 4.6349,16.84334 5.7286,24 1.1919,7.79913 1.8169,1114.50065 0.6429,1138.54545 -1.1781,24.1317 -3.7572,35.4992 -10.3526,45.6312 -3.9725,6.1025 -12.2018,14.5053 -16.9846,17.3427 -3.8467,2.2821 -12.0031,5.0597 -20.255,6.8978 -7.6078,1.6948 -24.1665,3.0007 -47.9252,3.7798 -2.7957,0.092 -254.5665,-0.01 -559.49079,-0.2142 z m -507.028,-20.3464 c 0.32109,-7.1085 2.44062,-26.4106 3.434,-31.2728 0.53121,-2.6 1.31189,-6.5272 1.73485,-8.7272 1.11624,-5.8061 4.38144,-29.0929 5.14979,-36.7273 0.36232,-3.6 1.32162,-10.1454 2.13179,-14.5454 0.81017,-4.4 2.28364,-14.2482 3.27437,-21.8848 l 1.80134,-13.8849 -3.55403,-31.9333 c -2.34559,-21.0755 -4.17051,-34.4063 -5.36713,-39.2061 -0.99721,-4 -2.15159,-9.2364 -2.56528,-11.6364 -0.87873,-5.0977 -5.76693,-15.4023 -10.91574,-23.0108 -1.9923,-2.944 -6.25846,-7.7606 -9.48036,-10.7035 -3.22189,-2.9429 -8.47299,-8.5507 -11.66911,-12.462 -4.54318,-5.5598 -7.83942,-8.631 -15.10705,-14.0758 -8.9027,-6.6699 -15.68494,-13.1236 -20.10609,-19.1323 -1.1321,-1.5386 -3.55487,-4.4338 -5.38392,-6.4338 -5.54238,-6.0603 -12.33765,-15.446 -14.31513,-19.7722 -2.21817,-4.8527 -3.69671,-14.6303 -4.3245,-28.5982 -0.52681,-11.7211 0.74788,-20.7462 4.21425,-29.8378 2.52205,-6.6149 9.84691,-17.9365 16.80093,-25.9684 4.90403,-5.66403 13.53796,-21.58425 15.19261,-28.01385 0.90228,-3.50603 0.70411,-6.40858 -2.39521,-35.08225 -0.9027,-8.35142 -0.43407,-16.64204 1.15616,-20.45389 1.54606,-3.70604 1.38686,-4.97935 -0.96312,-7.70262 -1.809,-2.09636 -7.47423,-9.94894 -15.25646,-21.14691 -3.50105,-5.03774 -11.18041,-21.49447 -14.163,-30.35105 -1.53038,-4.54437 -2.77247,-9.93062 -3.07838,-13.34916 -0.5032,-5.62328 -0.58494,-5.81186 -4.35406,-10.04255 -2.11268,-2.37142 -4.40511,-5.84705 -5.09429,-7.72364 -1.83081,-4.98516 -2.28737,-5.11003 -2.80642,-0.76749 -0.25646,2.14553 -0.33966,118.93731 -0.1849,259.53731 0.2895,263.0102 0.33129,266.7556 3.13655,281.0909 2.73125,13.957 4.35071,17.5159 11.04034,24.2617 11.0907,11.1837 23.75067,13.8183 65.49837,13.6301 l 16.33815,-0.074 z m 615.71807,3.7456 c 4.08344,-1.2189 35.25924,-31.3058 53.37672,-51.5125 31.58643,-35.2288 58.87005,-73.8965 80.98667,-114.7786 9.94731,-18.3874 14.91556,-28.6384 14.45839,-29.8318 -0.18633,-0.4863 -2.57134,-1.9286 -5.30003,-3.2053 -12.04767,-5.6365 -18.51061,-10.97 -25.18187,-20.7811 -4.0552,-5.9637 -20.86607,-39.4642 -25.18173,-50.1818 -1.93284,-4.8 -3.9017,-10.9659 -4.37521,-13.702 -1.5082,-8.7141 0.22829,-42.6646 2.83296,-55.3889 0.4094,-2 1.27851,-7.0727 1.93138,-11.2727 1.28259,-8.2512 3.53645,-17.4412 6.95628,-28.3636 1.21592,-3.8834 3.13003,-13.2792 4.37078,-21.4546 1.99747,-13.16122 2.17827,-15.79126 1.90002,-27.63635 -0.25858,-11.00603 -0.56719,-13.90167 -1.93778,-18.18182 -1.9971,-6.2365 -8.43636,-16.82865 -15.25351,-25.0909 -2.80537,-3.4 -6.64687,-8.14546 -8.53672,-10.54546 -4.5619,-5.79323 -10.63548,-11.67323 -15.09979,-14.6184 -3.68726,-2.43258 -7.32413,-3.72487 -20.33191,-7.22465 -11.7337,-3.15695 -17.56881,-5.30829 -27.819,-10.25651 -12.64347,-6.10356 -17.54463,-10.74706 -23.30756,-22.08225 -2.13529,-4.2 -5.12408,-9.27273 -6.64171,-11.27273 -10.18702,-13.42473 -14.96894,-33.12524 -15.7311,-64.80931 l -0.33439,-13.90022 2.42524,-2.82465 c 2.20993,-2.57389 33.93426,-36.4208 61.27516,-65.37491 6.04338,-6.4 19.43376,-20.63636 29.75634,-31.63636 10.32259,-11 24.44136,-25.98539 31.37505,-33.30087 12.16299,-12.83258 16.89604,-18.78295 16.89604,-21.24151 0,-0.64168 -1.93233,-3.98467 -4.2941,-7.42887 -2.36177,-3.44419 -4.98001,-7.68237 -5.81826,-9.41818 -1.70258,-3.52543 -6.81083,-10.99747 -9.38827,-13.73271 -0.92612,-0.98283 -2.31558,-3.01422 -3.08769,-4.51422 -0.7721,-1.5 -1.69169,-2.72727 -2.04343,-2.72727 -0.35181,0 -1.27053,-1.0708 -2.04147,-2.37955 -1.48321,-2.51773 -12.85826,-16.96303 -16.023,-20.34773 -1.35592,-1.45016 -2.58128,-2.00306 -4.45719,-2.01113 -1.42295,-0.006 -2.93557,-0.25158 -3.36145,-0.54546 -0.42581,-0.29387 -4.71758,-4.9525 -9.53719,-10.3525 -9.49217,-10.63517 -34.85602,-36.04396 -45.97547,-46.05695 -9.37084,-8.4384 -30.92158,-26.02668 -42.61584,-34.78027 -40.97273,-30.66953 -89.31003,-57.5574 -137.45573,-76.46047 -4.59284,-1.80325 -10.57906,-4.15031 -13.30271,-5.2157 -7.3368,-2.86986 -8.411,-2.52714 -10.8047,3.44729 -2.24683,5.60784 -10.47486,20.42942 -16.43851,29.61156 -2.20824,3.4 -5.94109,9.26973 -8.29522,13.04383 -6.18877,9.92174 -14.8733,20.8672 -22.15237,27.9195 -3.48721,3.37858 -10.42492,10.09541 -15.41714,14.92628 -13.93572,13.48536 -24.44121,21.33126 -32.44284,24.22957 -5.88689,2.13231 -21.19,2.30562 -27.10062,0.30691 -12.53644,-4.23928 -24.10828,-14.87104 -30.30008,-27.83856 -2.20152,-4.61067 -2.65987,-6.63647 -3.86691,-17.09091 -0.75314,-6.52314 -1.37937,-13.6744 -1.39161,-15.8917 -0.052,-9.41817 -7.54077,-27.85507 -17.5639,-43.24128 -8.65935,-13.29271 -13.36565,-17.17666 -28.05949,-23.15662 -2.48571,-1.01161 -6.48613,-3.03583 -8.88982,-4.49827 -4.80626,-2.92422 -6.92587,-3.06984 -16.27742,-1.11828 -9.05778,1.89025 -17.54766,-1.09295 -24.58353,-8.63824 -3.07003,-3.29231 -4.55537,-4.39506 -5.44605,-4.04324 -0.67358,0.26606 -4.16556,1.11946 -7.75995,1.89645 -9.117,1.97079 -9.69336,2.26312 -20.71106,10.50472 -11.47107,8.58074 -13.73871,11.08906 -24.96041,27.60958 -11.09645,16.33612 -16.50419,27.09147 -22.66617,45.08026 l -4.98248,14.54546 -0.25867,10.75356 c -0.31234,12.98532 -0.18863,13.26158 5.63167,12.57645 2.19482,-0.25836 6.68911,-1.31242 9.98733,-2.34236 5.75981,-1.79862 6.53553,-1.85946 19.63389,-1.53998 12.10288,0.29519 14.35476,0.54998 20.01561,2.26465 8.58545,2.60053 14.14477,5.20885 22.88475,10.73708 4.03596,2.55283 9.37368,5.78696 11.8616,7.18696 6.75526,3.80131 13.65817,10.97066 16.91217,17.56495 3.21505,6.51535 3.99037,11.386 4.02421,25.28046 0.0232,9.51221 0.0764,9.83739 2.14314,13.09091 2.80139,4.41005 4.0989,9.49519 5.11937,20.06368 1.23508,12.79107 1.61125,13.89383 4.9266,14.44269 1.49629,0.24772 5.82476,0.45532 9.61885,0.46135 11.94468,0.019 26.4962,1.41029 31.01768,2.96569 8.90876,3.06462 17.51645,10.74858 21.83193,19.48905 2.68435,5.43683 2.70155,5.53004 2.95245,16.00213 0.32592,13.60382 -1.7088,46.61494 -3.59004,58.24443 -2.40154,14.8459 -6.15478,22.03819 -17.44812,33.4356 -8.14819,8.22328 -11.94553,10.33651 -27.44871,15.27534 -7.41807,2.36313 -16.75501,5.15287 -20.74878,6.19942 -8.98881,2.35542 -11.55039,3.59273 -18.87964,9.11913 -7.38992,5.57221 -8.46249,6.8888 -12.3908,15.20945 -1.77721,3.76444 -4.86314,9.39222 -6.85761,12.50625 -1.99448,3.11411 -5.50314,9.49688 -7.79703,14.184 -5.08617,10.39259 -8.74257,14.67302 -15.28852,17.89775 -4.44967,2.19207 -5.40436,2.38524 -11.75244,2.37825 -8.28995,-0.009 -11.8297,-1.35374 -17.46649,-6.63454 -4.5767,-4.28764 -7.96994,-9.9848 -10.88569,-18.27673 -2.33513,-6.64073 -8.63306,-19.16458 -12.38114,-24.62073 -2.58452,-3.76239 -4.71143,-4.98312 -11.34949,-6.51418 -6.09,-1.40458 -19.73363,-5.31549 -30.34508,-8.69825 -7.51982,-2.39724 -8.56156,-2.54509 -17.79042,-2.52524 -19.10191,0.0415 -34.31694,3.72618 -39.60931,9.59338 -5.83449,6.46815 -12.54095,18.56815 -22.7003,40.95666 -6.98794,15.39956 -6.80075,14.20829 -2.8905,18.3952 5.78542,6.19476 7.81247,11.90218 7.82644,22.03636 0.01,7.03491 1.02702,10.63244 5.70818,20.18582 4.84121,9.87992 16.1822,25.3088 21.25538,28.91687 3.61283,2.56945 20.03458,10.02298 23.87485,10.83636 1.39782,0.296 8.09646,0.62997 14.88586,0.74211 6.78941,0.11215 14.46834,0.54887 17.06429,0.97047 2.59595,0.4216 10.78334,1.1184 18.19419,1.54837 14.55301,0.84443 23.94089,2.1184 24.15232,3.27753 0.073,0.4 -4.41253,4.32727 -9.96777,8.72727 -35.03529,27.74952 -35.2833,27.9824 -35.2833,33.12509 0,1.95054 0.77615,3.87796 2.72302,6.76218 2.3985,3.55316 24.08209,31.23418 76.08383,97.12761 8.39828,10.6418 23.73871,30.1487 34.08984,43.3487 38.75431,49.4204 37.48662,48.015 42.7307,47.3732 3.72881,-0.4564 4.29451,-0.862 34.25818,-24.5614 41.64875,-32.9416 44.97991,-35.5288 45.75057,-35.5341 0.40145,0 2.85217,4.3028 5.44605,9.5678 l 4.71615,9.5727 0.25001,9.585 c 0.2209,8.4688 0.0333,10.4008 -1.61107,16.5884 -2.04827,7.7076 -3.61125,11.1302 -10.02577,21.9539 -13.48377,22.7522 -25.04148,39.7884 -35.73573,52.6748 -2.79763,3.371 -6.69864,8.6074 -8.66891,11.6363 -1.97026,3.0289 -5.45165,8.1253 -7.7364,11.3253 -2.28476,3.2 -5.24609,7.7818 -6.58074,10.1818 -1.33465,2.4 -4.50183,7.3763 -7.03817,11.0586 -6.78722,9.8537 -17.16968,29.5365 -22.36335,42.3959 -2.50405,6.2 -6.41624,15.5273 -8.69375,20.7273 -4.93464,11.2668 -7.81764,19.0768 -13.15484,35.6364 -6.74361,20.9231 -10.88881,32.0104 -18.08182,48.3636 -3.39416,7.7166 -6.78949,17.0074 -6.42891,17.5918 0.4288,0.6948 465.35312,0.6671 467.68156,-0.028 z M 359.19144,1229.6363 c 0.54604,-1.3 0.85903,-2.4979 0.69554,-2.6622 -0.60301,-0.6057 -3.21071,2.3864 -3.21071,3.684 0,2.138 1.43242,1.556 2.51517,-1.0218 z M 839.92233,779.62638 c 0,-0.59455 -0.73521,-1.18553 -1.63381,-1.31339 -1.58938,-0.22603 -2.2681,1.17295 -1.12465,2.31819 0.84603,0.84727 2.75846,0.15069 2.75846,-1.0048 z m 429.49797,-89.079 c 16.0835,-11.99892 29.3847,-22.18659 29.5581,-22.63924 0.3219,-0.84016 -99.4341,-133.23395 -102.4313,-135.94442 -2.3342,-2.11088 -30.0814,-14.35279 -31.6189,-13.95009 -1.5899,0.4164 -34.9133,26.59549 -35.3697,27.78659 -0.1834,0.47876 1.0079,8.36956 2.6474,17.53512 2.44,13.64093 3.3258,17.19248 4.8817,19.57373 1.7676,2.70508 22.7207,30.67288 76.9896,102.76406 l 22.0636,29.30951 2.0184,-1.30951 c 1.1101,-0.72024 15.1776,-11.12682 31.2611,-23.12575 z M 1096.0679,549.19713 c 73.5416,-55.91313 104.8166,-80.28693 105.6842,-82.3637 0.8277,-1.98148 0.7629,-2.5434 -0.5499,-4.77204 -2.8061,-4.76339 -88.0247,-115.9356 -89.7256,-117.0518 -0.9347,-0.61341 -2.5415,-1.00969 -3.5705,-0.88063 -1.1315,0.14191 -25.2572,18.13805 -61.0338,45.52696 -44.7406,34.25141 -59.27723,45.74946 -59.6326,47.16766 -0.28298,1.12924 -0.0203,2.78518 0.65962,4.16224 1.40668,2.8478 84.58958,111.81729 88.21368,115.55962 4.2138,4.3514 4.8979,4.09949 19.9549,-7.34831 z m -65.186,-170.33561 c 13.7671,-10.15848 17.8056,-13.49683 17.8056,-14.71843 0,-3.84656 -4.6006,-32.2911 -5.4389,-33.6276 -3.2086,-5.11551 -103.79297,-135.95639 -104.4722,-135.89822 -1.00484,0.0861 -61.71877,47.34455 -62.05446,48.3019 -0.12846,0.3663 5.90025,8.61388 13.39706,18.32796 7.49681,9.71407 17.42039,22.57104 22.05243,28.57104 17.83334,23.10009 25.79815,33.4579 31.8498,41.41901 15.43868,20.3101 34.47197,44.78596 35.49321,45.64258 2.01823,1.69289 30.28526,15.03629 31.94326,15.07877 0.9991,0.0256 8.4343,-4.98767 19.4242,-13.09701 z"
       style="fill:#30572e;stroke-width:0.72670603" />
    <path
       id="path3765"
       d="m 170.05833,1421.8093 c -2.59595,-0.3009 -8.64107,-0.5968 -13.43359,-0.6576 -12.82129,-0.1625 -27.34471,-2.4893 -35.49862,-5.6872 -8.37984,-3.2866 -22.464092,-15.3926 -26.029497,-22.3736 -2.046952,-4.0079 -5.566973,-16.1157 -6.688118,-23.0052 -3.460354,-21.2639 -3.345348,-0.6034 -3.317501,-595.96921 0.02817,-602.81843 -0.222148,-563.31213 3.674478,-579.85093 2.741236,-11.63487 9.143306,-21.69554 18.590688,-29.21474 8.72762,-6.94635 13.7924,-8.81904 32.20428,-11.90747 25.90054,-4.34459 -18.59997,-4.03812 584.17951,-4.02313 331.36944,0.008 557.67964,0.28484 565.29984,0.69093 21.6354,1.15298 32.1922,3.78818 42.5536,10.62237 6.3035,4.15764 12.9921,11.10714 16.5618,17.20784 3.131,5.35103 6.5062,16.48706 8.9811,29.63136 1.0601,5.63052 1.1858,56.31735 1.4098,568.36362 0.1599,365.62726 -0.01,567.01296 -0.4749,575.99996 -1.1865,22.7468 -3.7192,33.175 -10.598,43.6366 -3.917,5.9572 -13.1532,15.0691 -17.597,17.3604 -2.9972,1.5453 -15.7539,5.2787 -22.3198,6.5321 -16.0051,3.0553 -1.0836,2.9759 -579.82267,3.0859 -304.12552,0.058 -555.07945,-0.141 -557.6754,-0.442 z m 641.80429,-14.8828 c 3.9364,-0.666 11.59805,-7.3982 33.88778,-29.7764 23.37612,-23.4689 36.34933,-38.5226 57.08607,-66.241 18.10041,-24.1944 32.44175,-46.9174 47.96669,-76 7.38252,-13.8296 9.70079,-18.625 14.41511,-29.8182 1.26356,-3 4.24349,-10.0364 6.62218,-15.6364 12.80424,-30.1449 21.76589,-56.5987 30.05775,-88.7273 7.7928,-30.1947 8.8474,-35.8884 13.6719,-73.8181 2.5586,-20.1145 3.2271,-28.76324 4.1037,-53.09095 3.2281,-89.5784 -13.3763,-177.29425 -49.42411,-261.0909 -8.97291,-20.85827 -25.52062,-52.38218 -38.68749,-73.70071 -4.89549,-7.9262 -5.65569,-9.57462 -5.03099,-10.90909 0.40475,-0.86461 25.27802,-27.66256 55.27391,-59.55101 29.99588,-31.88844 54.53808,-58.33616 54.53808,-58.77271 0,-0.88361 -13.0291,-18.06849 -14.8407,-19.57436 -1.1883,-0.98771 -4.6955,0.66672 -39.25676,18.51829 -39.87052,20.59389 -101.56249,52.12687 -103.2093,52.75397 -2.14502,0.81681 -2.34522,0.63416 -16.784,-15.30983 -22.90477,-25.29252 -52.96885,-52.53491 -82.23664,-74.51832 -4.19346,-3.14975 -8.76814,-6.59375 -10.16596,-7.65333 -3.71581,-2.81669 -28.84184,-19.39721 -38.12234,-25.1567 -17.37941,-10.78572 -51.40486,-28.49505 -70.43557,-36.65981 -13.17117,-5.65084 -35.02909,-14.22973 -39.93769,-15.67492 -2.39626,-0.7055 -9.7531,-3.00365 -16.34854,-5.10699 -12.59477,-4.01659 -39.18598,-11.43283 -45.37335,-12.65456 -1.99688,-0.3943 -7.22509,-1.55027 -11.61823,-2.56883 -16.38271,-3.79837 -49.42375,-9.05285 -66.07873,-10.50844 -5.1919,-0.45375 -13.19759,-1.18468 -17.79043,-1.62429 -14.47339,-1.38534 -45.60122,-1.7413 -69.34635,-0.793 -27.38123,1.09352 -55.62016,4.04101 -77.69697,8.10976 -4.39314,0.80966 -9.94811,1.82459 -12.34437,2.25541 -12.16316,2.18677 -39.69342,8.9555 -54.82356,13.4792 -24.66237,7.37371 -49.10356,16.42823 -74.7924,27.70769 -25.90974,11.37646 -73.66364,37.85768 -74.43053,41.27436 -0.19102,0.85102 -0.43228,202.32913 -0.53613,447.72912 -0.197518,466.72925 -0.242531,459.06195 2.78921,475.06895 0.61611,3.2529 1.91611,8.4379 2.88889,11.522 1.52135,4.8235 2.44417,6.3383 6.59911,10.8331 10.05966,10.8823 19.21621,14.2599 41.26832,15.2229 14.43037,0.6301 654.49337,1.0789 658.14244,0.4614 z M 1258.9776,699.43607 c 11.9414,-8.91015 26.0412,-19.41102 31.333,-23.33527 5.9349,-4.40121 9.6213,-7.62033 9.6213,-8.40169 0,-0.69669 -8.5775,-12.58058 -19.0611,-26.40863 -20.6139,-27.18995 -24.6132,-32.47527 -58.2085,-76.92686 -12.2436,-16.2 -23.321,-30.6 -24.6166,-32 -3.3767,-3.64895 -32.1171,-16.55788 -34.1013,-15.31681 -0.735,0.45975 -8.9965,6.89349 -18.3589,14.2972 -14.9852,11.85016 -17.0226,13.70587 -17.0226,15.50486 0,1.84301 3.1817,20.64068 5.1654,30.51812 0.7146,3.5579 3.1923,7.11682 27.3413,39.27272 63.9274,85.12336 74.4818,98.99663 75.3142,98.99663 0.4852,0 10.6525,-7.29012 22.5938,-16.20027 z M 1083.9805,559.34548 c 2.6273,-1.60459 115.7684,-88.20098 117.4887,-89.924 2.0022,-2.00525 2.2524,-4.756 0.6889,-7.57236 -2.4247,-4.36748 -88.7986,-117.04629 -90.3658,-117.88633 -2.7068,-1.45089 -5.6351,-1.0171 -8.476,1.25562 -2.5694,2.05551 -94.5502,72.49418 -107.63697,82.42811 -3.3947,2.57686 -6.90741,5.47654 -7.806,6.44371 -1.79103,1.92775 -2.11961,5.09268 -0.7883,7.59393 0.46502,0.8737 8.10103,11.07946 16.96897,22.67946 8.8679,11.6 20.0059,26.2068 24.7509,32.45955 23.7893,31.34777 43.7416,57.28834 45.9989,59.80449 3.818,4.25572 5.7309,4.82226 9.1767,2.71782 z m -64.9939,-170.48127 c 3.3558,-2.52467 11.5366,-8.57113 18.1796,-13.43656 6.6431,-4.86544 12.2542,-9.30529 12.4692,-9.86634 0.2149,-0.56104 -0.7473,-8.5055 -2.1383,-17.65434 -1.9963,-13.1303 -2.8638,-17.125 -4.1184,-18.96398 -0.8742,-1.28136 -9.4318,-12.56739 -19.0168,-25.08008 -19.7068,-25.72602 -21.947,-28.65843 -57.95291,-75.86292 -14.33995,-18.8 -26.60932,-34.26661 -27.26524,-34.37024 -0.65592,-0.10364 -9.06491,5.95091 -18.6867,13.45454 -9.62179,7.50364 -23.5909,18.38144 -31.04248,24.1729 -8.08426,6.28317 -13.54832,11.02541 -13.54832,11.75848 0,1.09088 5.81762,8.83925 35.68637,47.52978 4.32314,5.6 11.88531,15.41818 16.80483,21.81818 4.91945,6.4 13.97696,18.18181 20.12773,26.18181 6.15069,8 15.35597,19.98407 20.45608,26.63125 5.10019,6.6472 10.15536,12.66487 11.23382,13.37261 3.0601,2.00818 30.25132,14.81913 31.55012,14.86462 0.638,0.0223 3.9056,-2.02503 7.2614,-4.54971 z"
       style="fill:#000000;stroke-width:0.72670603" />
  </g>
</svg>
